# Blender 5.0.1
# www.blender.org
mtllib AstroidSmooth.mtl
o Icosphere
v 0.452612 -9.146535 -0.673073
v 5.938671 -3.693988 4.174537
v -4.290770 -6.338895 14.472109
v -7.726867 -4.682248 -0.499918
v -3.049969 -4.950758 -8.634336
v 9.675333 -5.572581 -6.900343
v 2.351048 4.266737 8.128043
v -6.939425 4.581756 5.274337
v -8.653757 4.635720 -6.583369
v 2.951841 4.744239 -8.812020
v 5.518059 2.347402 -0.302387
v 0.324275 9.288433 -0.072509
v -1.252509 -11.017112 5.260696
v 3.917822 -8.307394 2.344848
v 3.269112 -4.958483 11.614073
v 8.897116 -5.761699 -0.172841
v 5.277966 -7.714609 -3.021240
v -4.854753 -7.428612 -0.452300
v -7.508628 -5.722659 5.478713
v -0.540528 -5.830532 -3.806654
v -6.227808 -5.235168 -3.962497
v 5.265054 -4.720486 -9.277268
v 7.940197 -0.087363 2.151950
v 8.684830 -0.382237 -2.953305
v 0.705326 1.400475 13.947778
v 6.269280 0.781655 9.304410
v -10.152447 -0.121800 2.297287
v -7.630219 1.118012 10.529866
v -9.506184 -2.118089 -12.036218
v -11.403931 -1.797563 -4.547340
v 7.624346 -0.286043 -9.509552
v 0.254296 0.410244 -12.747416
v 5.163166 4.167246 4.810129
v -2.518233 5.148544 7.791272
v -8.895706 4.794388 -0.759896
v -3.177785 6.296890 -8.848459
v 4.676146 4.228852 -3.818050
v 0.399738 4.702055 3.852819
v 3.069450 5.650422 -0.455401
v -3.550316 8.594738 3.003931
v -3.946989 10.529575 -2.814774
v 2.691456 9.853724 -4.442982
v -0.315543 -10.402383 2.006473
v 4.907175 -5.907081 3.228277
v 0.110525 -5.758982 14.460022
v 7.452124 -4.699183 2.003668
v 8.247751 -7.294146 -5.044528
v -2.166836 -8.331068 -0.535960
v -7.528455 -5.056542 2.361372
v -0.044427 -7.487827 -2.259354
v -4.626236 -5.172012 -6.451035
v 7.829120 -5.450692 -8.447667
v 7.283119 -1.898337 3.241411
v 6.997219 1.234184 -1.553258
v -1.414856 -1.644280 15.589985
v 4.721399 2.954636 9.257504
v -8.933461 -2.241239 1.079135
v -6.923327 2.775811 7.483041
v -7.088427 -5.131736 -12.149702
v -11.000900 1.610139 -6.110025
v 8.955828 -3.090808 -8.569522
v 1.558725 2.496324 -10.527712
v 4.206708 4.620995 6.905770
v -4.746313 5.190248 6.938795
v -9.197807 4.803956 -3.880334
v -0.128597 5.714319 -8.919680
v 4.739502 3.075141 -2.056966
v 1.345512 4.518837 6.123631
v 2.006735 7.183614 -0.430227
v -5.095050 6.726413 4.281110
v -6.045599 7.280240 -4.668211
v 2.759589 7.285256 -6.795263
v -2.562883 -9.112013 9.391788
v 2.289600 -9.145408 0.741376
v 4.512780 -3.932594 6.849751
v 9.733014 -6.252489 -3.476653
v 2.371644 -7.972671 -1.849048
v -6.512153 -6.237268 -0.515590
v -8.119973 -7.311807 10.845163
v -1.637767 -4.918486 -5.805786
v -7.017588 -5.013900 -2.231695
v 0.694691 -4.162323 -8.094430
v 6.856751 1.207572 0.913703
v 9.885845 -3.535559 -5.146162
v 1.769453 2.968536 10.254910
v 6.330710 -1.444922 7.274044
v -9.106744 2.217658 3.783073
v -7.411346 -1.958892 13.977921
v -9.505402 1.733937 -8.999882
v -9.083861 -3.022917 -2.278042
v 4.989704 2.406017 -8.854022
v -1.665377 -2.474675 -11.759289
v 4.899288 2.811970 1.831246
v -0.275506 4.515194 7.844107
v -7.811498 4.568167 2.080261
v -5.766740 5.320213 -7.657837
v 4.221029 4.828507 -6.395315
v 0.015580 6.269488 1.530714
v 3.889863 3.785055 -0.332303
v -1.820425 9.070240 1.570486
v -1.675297 11.069660 -1.244456
v 1.800505 10.154968 -2.274217
v 3.033626 7.846324 -2.255433
v 3.619444 4.833944 -2.117090
v 3.557923 6.645208 -4.043850
v -0.481440 11.294623 -3.723368
v -0.265749 8.947317 -7.021651
v -3.624634 8.678648 -6.190116
v -3.776442 10.025430 0.222778
v -6.233809 7.572121 -1.734862
v -5.822583 6.838235 1.176923
v -1.769342 6.915462 3.556716
v -3.113719 6.843444 5.617599
v -0.970724 5.402834 6.204832
v 1.821646 4.809302 1.313902
v 2.892583 4.206329 4.442457
v 3.528815 4.066771 1.687990
v 5.969707 2.014666 -3.382738
v 8.534456 -0.579430 -6.606371
v 6.139317 2.471992 -6.297641
v -1.558463 3.114460 -10.994446
v -3.674803 -0.426212 -13.010309
v -5.827848 2.908313 -9.868163
v -10.455289 2.262575 -2.697506
v -10.015211 -0.316418 -0.905075
v -9.892487 2.587168 0.706058
v -4.572111 3.338984 8.818063
v -4.772681 2.241421 13.289808
v -1.335837 3.377704 9.412612
v 6.160430 3.339156 7.567714
v 6.962166 0.626583 5.818084
v 6.085791 1.943352 3.471396
v 3.669991 0.309600 -10.585749
v 7.014482 -2.844395 -9.850606
v 2.390677 -1.798406 -10.575080
v -11.840135 -2.475345 -8.593813
v -10.028944 -5.563399 -9.563515
v -9.750315 -4.725486 -4.734472
v -8.784175 -0.104717 5.828213
v -8.595663 -2.742668 3.890883
v -9.009487 -3.081023 9.156597
v 4.141838 0.824787 11.526348
v 2.436550 -1.827952 14.606147
v 5.164457 -1.882265 10.534410
v 8.585702 -0.296256 -0.325217
v 8.625072 -2.667540 1.060841
v 9.538442 -3.492478 -1.618420
v 5.633781 -6.420559 -6.414268
v 1.828133 -6.281170 -3.414554
v 1.871039 -4.935478 -6.101043
v -3.212116 -5.167063 -3.772284
v -2.567152 -6.643702 -2.197020
v -5.529399 -6.213403 -2.164742
v -6.275934 -6.910879 2.355299
v -3.265291 -9.574116 2.282133
v -4.891422 -8.928570 6.009145
v 7.673909 -7.478951 -1.594352
v 6.229455 -6.950891 1.111467
v 4.488830 -8.127765 -0.366150
v 0.843285 -9.055174 7.906214
v 1.788427 -10.131145 3.764696
v 3.282223 -6.604843 5.267056
vn 0.0017 -0.8405 -0.5418
vn 0.7468 -0.4853 0.4548
vn -0.1995 -0.5471 0.8129
vn -0.8082 -0.5874 -0.0424
vn 0.2195 -0.9461 -0.2381
vn 0.8247 -0.4186 -0.3804
vn 0.0857 0.9197 0.3831
vn -0.6905 0.6253 0.3636
vn -0.6145 0.6809 -0.3985
vn 0.4921 0.5354 -0.6864
vn 0.6424 0.7658 0.0307
vn 0.5157 0.5422 0.6633
vn -0.0719 -0.9914 0.1097
vn 0.6498 -0.7155 0.2566
vn 0.7834 -0.5188 0.3423
vn 0.7911 -0.4124 0.4518
vn -0.0603 -0.9532 -0.2964
vn -0.4234 -0.8097 -0.4064
vn -0.8637 -0.4852 -0.1363
vn -0.1402 -0.8303 -0.5394
vn -0.1428 -0.9868 -0.0767
vn -0.1193 -0.7221 -0.6814
vn 0.9022 0.3630 0.2328
vn 0.8370 0.5471 -0.0109
vn 0.2443 0.7017 0.6693
vn 0.8729 0.1286 0.4706
vn -0.9754 -0.1458 0.1654
vn -0.7753 0.5677 0.2768
vn -0.5590 0.1402 -0.8172
vn -0.9344 -0.1859 0.3037
vn 0.6501 0.4175 -0.6349
vn 0.3177 0.0837 -0.9445
vn 0.5375 0.8223 -0.1869
vn 0.0326 0.7715 0.6354
vn -0.7657 0.6120 0.1978
vn -0.2290 0.5964 -0.7693
vn 0.8389 0.5132 0.1814
vn 0.4643 0.8691 0.1703
vn 0.7793 0.4884 0.3926
vn -0.1520 0.8418 0.5179
vn -0.5506 0.8252 -0.1263
vn 0.7420 0.6404 -0.1983
vn -0.0060 -0.9420 -0.3354
vn 0.6737 -0.5266 0.5185
vn 0.3361 -0.6031 0.7234
vn 0.6800 -0.3805 0.6268
vn 0.2715 -0.9262 -0.2615
vn -0.2720 -0.7747 -0.5708
vn -0.8647 -0.5007 -0.0407
vn -0.1339 -0.7012 -0.7003
vn 0.0760 -0.9967 -0.0285
vn 0.2699 -0.6517 -0.7088
vn 0.8801 -0.2081 0.4268
vn 0.6538 0.7566 0.0091
vn -0.0046 0.1110 0.9938
vn 0.3876 0.6956 0.6049
vn -0.8837 -0.4648 0.0550
vn -0.6927 0.5818 0.4263
vn 0.0266 -0.7543 -0.6560
vn -0.9068 0.4028 -0.1241
vn 0.8201 0.0285 -0.5715
vn 0.3295 0.4975 -0.8025
vn 0.1914 0.9686 0.1586
vn -0.4204 0.6947 0.5837
vn -0.7699 0.6364 -0.0470
vn 0.1909 0.5439 -0.8171
vn 0.7378 0.6594 0.1444
vn 0.1565 0.9861 0.0562
vn 0.6342 0.4272 0.6444
vn -0.5864 0.7276 0.3561
vn -0.6380 0.7049 -0.3098
vn 0.6494 0.5217 -0.5534
vn -0.0601 -0.9185 0.3909
vn 0.3582 -0.8978 -0.2562
vn 0.7979 -0.5449 0.2578
vn 0.8890 -0.4491 0.0895
vn 0.0520 -0.8434 -0.5348
vn -0.6935 -0.6948 -0.1904
vn -0.7358 -0.6361 0.2322
vn 0.0170 -0.9781 -0.2073
vn -0.6090 -0.7918 -0.0469
vn 0.0480 -0.8926 -0.4483
vn 0.6704 0.7410 0.0384
vn 0.9818 0.1795 -0.0614
vn 0.1482 0.8266 0.5430
vn 0.8884 -0.3780 0.2607
vn -0.8526 0.4045 0.3309
vn -0.7025 0.1086 0.7034
vn -0.6016 0.5536 -0.5758
vn -0.7823 -0.5482 0.2960
vn 0.5591 0.5574 -0.6137
vn 0.2876 -0.6292 -0.7220
vn 0.6878 0.7177 -0.1088
vn 0.1450 0.8879 0.4366
vn -0.7268 0.6399 0.2495
vn -0.4711 0.6463 -0.6003
vn 0.8132 0.5342 -0.2310
vn 0.6172 0.5195 0.5909
vn 0.7891 0.6093 0.0779
vn 0.3768 0.6893 0.6187
vn 0.0826 0.9252 0.3705
vn 0.5969 0.6913 0.4072
vn 0.8841 0.3399 0.3208
vn 0.8951 0.3838 0.2268
vn 0.9378 0.3457 0.0337
vn 0.0441 0.9673 -0.2496
vn 0.1062 0.6836 -0.7221
vn -0.4317 0.7139 -0.5513
vn -0.4567 0.8134 0.3604
vn -0.7328 0.6747 0.0879
vn -0.7033 0.6610 0.2617
vn 0.5937 0.6888 0.4160
vn 0.0705 0.8407 0.5369
vn 0.4256 0.8589 0.2849
vn 0.4506 0.7756 0.4421
vn 0.1411 0.9892 -0.0396
vn 0.5347 0.8431 0.0568
vn 0.7451 0.6628 0.0737
vn 0.8495 0.5167 -0.1064
vn 0.7757 0.6241 -0.0936
vn 0.0038 0.5634 -0.8262
vn -0.0648 0.1574 -0.9854
vn -0.3369 0.5691 -0.7501
vn -0.9506 0.2728 0.1479
vn -0.9564 -0.2258 0.1851
vn -0.9245 0.3307 0.1897
vn -0.3291 0.7970 0.5064
vn -0.2733 0.7675 0.5799
vn 0.0092 0.8573 0.5148
vn 0.7943 0.5751 0.1956
vn 0.9802 0.1286 0.1504
vn 0.8056 0.5852 -0.0928
vn 0.3713 0.1873 -0.9094
vn 0.2923 -0.1902 -0.9372
vn 0.1866 -0.4671 -0.8643
vn -0.9765 -0.0687 -0.2044
vn -0.4529 -0.8680 -0.2035
vn -0.6101 -0.7346 0.2969
vn -0.9595 0.1596 0.2322
vn -0.9375 -0.3472 0.0235
vn -0.9966 -0.0452 0.0682
vn 0.6114 0.4420 0.6564
vn 0.6149 -0.0031 0.7886
vn 0.8663 -0.2662 0.4227
vn 0.8657 0.4850 0.1238
vn 0.9017 -0.0155 0.4322
vn 0.9778 0.1010 0.1835
vn -0.2180 -0.8749 -0.4325
vn -0.1735 -0.7972 -0.5783
vn -0.1813 -0.9026 -0.3904
vn -0.0659 -0.9259 -0.3720
vn -0.2008 -0.7445 -0.6367
vn -0.3370 -0.8281 -0.4479
vn -0.7244 -0.6782 -0.1235
vn -0.4584 -0.8431 -0.2811
vn -0.5839 -0.8113 -0.0294
vn 0.4071 -0.8983 0.1652
vn 0.5367 -0.7023 0.4677
vn 0.2908 -0.9560 -0.0386
vn 0.5241 -0.7658 0.3726
vn 0.5599 -0.8224 0.1003
vn 0.7910 -0.5235 0.3167
vt 0.181819 0.000000
vt 0.204546 0.039365
vt 0.159092 0.039365
vt 0.272728 0.157461
vt 0.295455 0.118096
vt 0.318182 0.157461
vt 0.909091 0.000000
vt 0.931818 0.039365
vt 0.886364 0.039365
vt 0.727273 0.000000
vt 0.750000 0.039365
vt 0.704546 0.039365
vt 0.545455 0.000000
vt 0.568182 0.039365
vt 0.522728 0.039365
vt 0.295455 0.196826
vt 0.090910 0.157461
vt 0.136364 0.157461
vt 0.113637 0.196826
vt 0.818182 0.157461
vt 0.863636 0.157461
vt 0.840909 0.196826
vt 0.636364 0.157461
vt 0.681818 0.157461
vt 0.659091 0.196826
vt 0.454546 0.157461
vt 0.500000 0.157461
vt 0.477273 0.196826
vt 0.250001 0.196826
vt 0.068182 0.196826
vt 0.795455 0.196826
vt 0.613637 0.196826
vt 0.431819 0.196826
vt 0.181819 0.314921
vt 0.227273 0.314921
vt 0.204546 0.354286
vt 0.000000 0.314921
vt 0.045455 0.314921
vt 0.022728 0.354286
vt 0.727273 0.314921
vt 0.772727 0.314921
vt 0.750000 0.354286
vt 0.545455 0.314921
vt 0.590909 0.314921
vt 0.568182 0.354286
vt 0.363637 0.314921
vt 0.409091 0.314921
vt 0.386364 0.354286
vt 0.409092 0.393651
vt 0.454546 0.393651
vt 0.431819 0.433017
vt 0.431819 0.354286
vt 0.454546 0.314921
vt 0.500000 0.314921
vt 0.477273 0.354286
vt 0.590909 0.393651
vt 0.636364 0.393651
vt 0.613637 0.433017
vt 0.613637 0.354286
vt 0.636364 0.314921
vt 0.681818 0.314921
vt 0.659091 0.354286
vt 0.772727 0.393651
vt 0.818182 0.393651
vt 0.795455 0.433017
vt 0.795455 0.354286
vt 0.818182 0.314921
vt 0.863636 0.314921
vt 0.840909 0.354286
vt 0.045455 0.393651
vt 0.090910 0.393651
vt 0.068182 0.433017
vt 0.068182 0.354286
vt 0.090910 0.314921
vt 0.136364 0.314921
vt 0.113637 0.354286
vt 0.227273 0.393651
vt 0.272728 0.393651
vt 0.250001 0.433017
vt 0.250001 0.354286
vt 0.272728 0.314921
vt 0.318182 0.314921
vt 0.295455 0.354286
vt 0.409092 0.236191
vt 0.431819 0.275556
vt 0.386364 0.275556
vt 0.454546 0.236191
vt 0.500000 0.236191
vt 0.522728 0.275556
vt 0.477273 0.275556
vt 0.590909 0.236191
vt 0.613637 0.275556
vt 0.568182 0.275556
vt 0.636364 0.236191
vt 0.681818 0.236191
vt 0.704546 0.275556
vt 0.659091 0.275556
vt 0.772727 0.236191
vt 0.795455 0.275556
vt 0.750000 0.275556
vt 0.818182 0.236191
vt 0.863636 0.236191
vt 0.886364 0.275556
vt 0.840909 0.275556
vt 0.045455 0.236191
vt 0.068182 0.275556
vt 0.022728 0.275556
vt 0.090910 0.236191
vt 0.136365 0.236191
vt 0.159092 0.275556
vt 0.113637 0.275556
vt 0.227273 0.236191
vt 0.250001 0.275556
vt 0.204546 0.275556
vt 0.272728 0.236191
vt 0.318182 0.236191
vt 0.340910 0.275556
vt 0.295455 0.275556
vt 0.545455 0.236191
vt 0.522728 0.196826
vt 0.545455 0.157461
vt 0.590909 0.157461
vt 0.568182 0.196826
vt 0.727273 0.236191
vt 0.704546 0.196826
vt 0.727273 0.157461
vt 0.772727 0.157461
vt 0.750000 0.196826
vt 0.909091 0.236191
vt 0.886364 0.196826
vt 0.909091 0.157461
vt 0.954545 0.157461
vt 0.931818 0.196826
vt 0.181819 0.236191
vt 0.159092 0.196826
vt 0.181819 0.157461
vt 0.227273 0.157461
vt 0.204546 0.196826
vt 0.363637 0.236191
vt 0.340910 0.196826
vt 0.363637 0.157461
vt 0.409092 0.157461
vt 0.386364 0.196826
vt 0.500000 0.078731
vt 0.522728 0.118096
vt 0.477273 0.118096
vt 0.545455 0.078731
vt 0.590909 0.078731
vt 0.613637 0.118096
vt 0.568182 0.118096
vt 0.681818 0.078731
vt 0.704546 0.118096
vt 0.659091 0.118096
vt 0.727273 0.078731
vt 0.772727 0.078731
vt 0.795455 0.118096
vt 0.750000 0.118096
vt 0.863636 0.078731
vt 0.886364 0.118096
vt 0.840909 0.118096
vt 0.909091 0.078731
vt 0.954545 0.078731
vt 0.977273 0.118096
vt 0.931818 0.118096
vt 0.386364 0.118096
vt 0.340910 0.118096
vt 0.318182 0.078731
vt 0.340910 0.039365
vt 0.363637 0.078731
vt 0.136365 0.078731
vt 0.159092 0.118096
vt 0.113637 0.118096
vt 0.181819 0.078731
vt 0.227273 0.078731
vt 0.250001 0.118096
vt 0.204546 0.118096
vt 0.386364 0.039365
vt 0.409092 0.078731
vt 0.363637 0.000000
vt 0.431819 0.118096
vt 1.000000 0.157461
vt 0.977273 0.196826
vt 0.954545 0.236191
vt 0.931818 0.275556
vt 0.909091 0.314921
vt 0.340910 0.354286
vt 0.318182 0.393651
vt 0.295455 0.433017
vt 0.272728 0.472382
vt 0.159092 0.354286
vt 0.136365 0.393651
vt 0.113637 0.433017
vt 0.090910 0.472382
vt 0.886364 0.354286
vt 0.863636 0.393651
vt 0.840909 0.433017
vt 0.818182 0.472382
vt 0.704546 0.354286
vt 0.681818 0.393651
vt 0.659091 0.433017
vt 0.636364 0.472382
vt 0.522728 0.354286
vt 0.500000 0.393651
vt 0.477273 0.433017
vt 0.454546 0.472382
s 1
f 1/1/1 74/2/74 43/3/43
f 2/4/2 44/5/44 46/6/46
f 1/7/1 43/8/43 48/9/48
f 1/10/1 48/11/48 50/12/50
f 1/13/1 50/14/50 77/15/77
f 2/4/2 46/6/46 53/16/53
f 3/17/3 45/18/45 55/19/55
f 4/20/4 49/21/49 57/22/57
f 5/23/5 51/24/51 59/25/59
f 6/26/6 52/27/52 61/28/61
f 2/4/2 53/16/53 86/29/86
f 3/17/3 55/19/55 88/30/88
f 4/20/4 57/22/57 90/31/90
f 5/23/5 59/25/59 92/32/92
f 6/26/6 61/28/61 84/33/84
f 7/34/7 63/35/63 68/36/68
f 8/37/8 64/38/64 70/39/70
f 9/40/9 65/41/65 71/42/71
f 10/43/10 66/44/66 72/45/72
f 11/46/11 67/47/67 99/48/99
f 39/49/39 103/50/103 69/51/69
f 39/49/39 104/52/104 103/50/103
f 37/53/37 97/54/97 105/55/105
f 42/56/42 106/57/106 102/58/102
f 42/56/42 107/59/107 106/57/106
f 36/60/36 96/61/96 108/62/108
f 41/63/41 109/64/109 101/65/101
f 41/63/41 110/66/110 109/64/109
f 35/67/35 95/68/95 111/69/111
f 40/70/40 112/71/112 100/72/100
f 40/70/40 113/73/113 112/71/112
f 34/74/34 94/75/94 114/76/114
f 38/77/38 115/78/115 98/79/98
f 38/77/38 116/80/116 115/78/115
f 33/81/33 93/82/93 117/83/117
f 24/84/24 118/85/118 54/86/54
f 24/84/24 119/87/119 118/85/118
f 31/88/31 91/89/91 120/90/120
f 32/91/32 121/92/121 62/93/62
f 32/91/32 122/94/122 121/92/121
f 29/95/29 89/96/89 123/97/123
f 30/98/30 124/99/124 60/100/60
f 30/98/30 125/101/125 124/99/124
f 27/102/27 87/103/87 126/104/126
f 28/105/28 127/106/127 58/107/58
f 28/105/28 128/108/128 127/106/127
f 25/109/25 85/110/85 129/111/129
f 26/112/26 130/113/130 56/114/56
f 26/112/26 131/115/131 130/113/130
f 23/116/23 83/117/83 132/118/132
f 31/88/31 133/119/133 91/89/91
f 31/88/31 134/120/134 133/119/133
f 22/121/22 82/122/82 135/123/135
f 29/95/29 136/124/136 89/96/89
f 29/95/29 137/125/137 136/124/136
f 21/126/21 81/127/81 138/128/138
f 27/102/27 139/129/139 87/103/87
f 27/102/27 140/130/140 139/129/139
f 19/131/19 79/132/79 141/133/141
f 25/109/25 142/134/142 85/110/85
f 25/109/25 143/135/143 142/134/142
f 15/136/15 75/137/75 144/138/144
f 23/116/23 145/139/145 83/117/83
f 23/116/23 146/140/146 145/139/145
f 16/141/16 76/142/76 147/143/147
f 17/144/17 148/145/148 47/146/47
f 17/144/17 149/147/149 148/145/148
f 20/148/20 80/149/80 150/150/150
f 20/151/20 151/152/151 80/153/80
f 20/151/20 152/154/152 151/152/151
f 18/155/18 78/156/78 153/157/153
f 18/158/18 154/159/154 78/160/78
f 18/158/18 155/161/155 154/159/154
f 13/162/13 73/163/73 156/164/156
f 16/141/16 157/165/157 76/142/76
f 16/141/16 158/166/158 157/165/157
f 14/167/14 74/168/74 159/169/159
f 13/170/13 160/171/160 73/172/73
f 13/170/13 161/173/161 160/171/160
f 14/174/14 44/175/44 162/176/162
f 162/176/162 75/137/75 15/136/15
f 162/176/162 44/175/44 75/137/75
f 44/175/44 2/4/2 75/137/75
f 160/171/160 162/176/162 15/136/15
f 160/171/160 161/173/161 162/176/162
f 161/173/161 14/174/14 162/176/162
f 73/172/73 45/18/45 3/17/3
f 73/172/73 160/171/160 45/18/45
f 160/171/160 15/136/15 45/18/45
f 159/169/159 77/177/77 17/178/17
f 159/169/159 74/168/74 77/177/77
f 74/168/74 1/179/1 77/177/77
f 157/165/157 159/169/159 17/178/17
f 157/165/157 158/166/158 159/169/159
f 158/166/158 14/167/14 159/169/159
f 76/142/76 47/180/47 6/26/6
f 76/142/76 157/165/157 47/180/47
f 157/165/157 17/178/17 47/180/47
f 156/164/156 79/132/79 19/131/19
f 156/164/156 73/163/73 79/132/79
f 73/163/73 3/181/3 79/132/79
f 154/159/154 156/164/156 19/131/19
f 154/159/154 155/161/155 156/164/156
f 155/161/155 13/162/13 156/164/156
f 78/160/78 49/21/49 4/20/4
f 78/160/78 154/159/154 49/21/49
f 154/159/154 19/131/19 49/21/49
f 153/157/153 81/127/81 21/126/21
f 153/157/153 78/156/78 81/127/81
f 78/156/78 4/20/4 81/127/81
f 151/152/151 153/157/153 21/126/21
f 151/152/151 152/154/152 153/157/153
f 152/154/152 18/155/18 153/157/153
f 80/153/80 51/24/51 5/23/5
f 80/153/80 151/152/151 51/24/51
f 151/152/151 21/126/21 51/24/51
f 150/150/150 82/122/82 22/121/22
f 150/150/150 80/149/80 82/122/82
f 80/149/80 5/23/5 82/122/82
f 148/145/148 150/150/150 22/121/22
f 148/145/148 149/147/149 150/150/150
f 149/147/149 20/148/20 150/150/150
f 47/146/47 52/27/52 6/26/6
f 47/146/47 148/145/148 52/27/52
f 148/145/148 22/121/22 52/27/52
f 147/143/147 84/33/84 24/84/24
f 147/143/147 76/142/76 84/33/84
f 76/142/76 6/26/6 84/33/84
f 145/139/145 147/143/147 24/84/24
f 145/139/145 146/140/146 147/143/147
f 146/140/146 16/141/16 147/143/147
f 83/117/83 54/86/54 11/46/11
f 83/117/83 145/139/145 54/86/54
f 145/139/145 24/84/24 54/86/54
f 144/138/144 86/29/86 26/112/26
f 144/138/144 75/137/75 86/29/86
f 75/137/75 2/4/2 86/29/86
f 142/134/142 144/138/144 26/112/26
f 142/134/142 143/135/143 144/138/144
f 143/135/143 15/136/15 144/138/144
f 85/110/85 56/114/56 7/34/7
f 85/110/85 142/134/142 56/114/56
f 142/134/142 26/112/26 56/114/56
f 141/133/141 88/182/88 28/183/28
f 141/133/141 79/132/79 88/182/88
f 79/132/79 3/181/3 88/182/88
f 139/129/139 141/133/141 28/183/28
f 139/129/139 140/130/140 141/133/141
f 140/130/140 19/131/19 141/133/141
f 87/103/87 58/184/58 8/185/8
f 87/103/87 139/129/139 58/184/58
f 139/129/139 28/183/28 58/184/58
f 138/128/138 90/31/90 30/98/30
f 138/128/138 81/127/81 90/31/90
f 81/127/81 4/20/4 90/31/90
f 136/124/136 138/128/138 30/98/30
f 136/124/136 137/125/137 138/128/138
f 137/125/137 21/126/21 138/128/138
f 89/96/89 60/100/60 9/40/9
f 89/96/89 136/124/136 60/100/60
f 136/124/136 30/98/30 60/100/60
f 135/123/135 92/32/92 32/91/32
f 135/123/135 82/122/82 92/32/92
f 82/122/82 5/23/5 92/32/92
f 133/119/133 135/123/135 32/91/32
f 133/119/133 134/120/134 135/123/135
f 134/120/134 22/121/22 135/123/135
f 91/89/91 62/93/62 10/43/10
f 91/89/91 133/119/133 62/93/62
f 133/119/133 32/91/32 62/93/62
f 132/118/132 93/82/93 33/81/33
f 132/118/132 83/117/83 93/82/93
f 83/117/83 11/46/11 93/82/93
f 130/113/130 132/118/132 33/81/33
f 130/113/130 131/115/131 132/118/132
f 131/115/131 23/116/23 132/118/132
f 56/114/56 63/35/63 7/34/7
f 56/114/56 130/113/130 63/35/63
f 130/113/130 33/81/33 63/35/63
f 129/111/129 94/75/94 34/74/34
f 129/111/129 85/110/85 94/75/94
f 85/110/85 7/34/7 94/75/94
f 127/106/127 129/111/129 34/74/34
f 127/106/127 128/108/128 129/111/129
f 128/108/128 25/109/25 129/111/129
f 58/107/58 64/38/64 8/37/8
f 58/107/58 127/106/127 64/38/64
f 127/106/127 34/74/34 64/38/64
f 126/104/126 95/68/95 35/67/35
f 126/104/126 87/103/87 95/68/95
f 87/103/87 8/185/8 95/68/95
f 124/99/124 126/104/126 35/67/35
f 124/99/124 125/101/125 126/104/126
f 125/101/125 27/102/27 126/104/126
f 60/100/60 65/41/65 9/40/9
f 60/100/60 124/99/124 65/41/65
f 124/99/124 35/67/35 65/41/65
f 123/97/123 96/61/96 36/60/36
f 123/97/123 89/96/89 96/61/96
f 89/96/89 9/40/9 96/61/96
f 121/92/121 123/97/123 36/60/36
f 121/92/121 122/94/122 123/97/123
f 122/94/122 29/95/29 123/97/123
f 62/93/62 66/44/66 10/43/10
f 62/93/62 121/92/121 66/44/66
f 121/92/121 36/60/36 66/44/66
f 120/90/120 97/54/97 37/53/37
f 120/90/120 91/89/91 97/54/97
f 91/89/91 10/43/10 97/54/97
f 118/85/118 120/90/120 37/53/37
f 118/85/118 119/87/119 120/90/120
f 119/87/119 31/88/31 120/90/120
f 54/86/54 67/47/67 11/46/11
f 54/86/54 118/85/118 67/47/67
f 118/85/118 37/53/37 67/47/67
f 117/83/117 99/186/99 39/187/39
f 117/83/117 93/82/93 99/186/99
f 93/82/93 11/46/11 99/186/99
f 115/78/115 117/83/117 39/187/39
f 115/78/115 116/80/116 117/83/117
f 116/80/116 33/81/33 117/83/117
f 98/79/98 69/188/69 12/189/12
f 98/79/98 115/78/115 69/188/69
f 115/78/115 39/187/39 69/188/69
f 114/76/114 68/190/68 38/191/38
f 114/76/114 94/75/94 68/190/68
f 94/75/94 7/34/7 68/190/68
f 112/71/112 114/76/114 38/191/38
f 112/71/112 113/73/113 114/76/114
f 113/73/113 34/74/34 114/76/114
f 100/72/100 98/192/98 12/193/12
f 100/72/100 112/71/112 98/192/98
f 112/71/112 38/191/38 98/192/98
f 111/69/111 70/194/70 40/195/40
f 111/69/111 95/68/95 70/194/70
f 95/68/95 8/185/8 70/194/70
f 109/64/109 111/69/111 40/195/40
f 109/64/109 110/66/110 111/69/111
f 110/66/110 35/67/35 111/69/111
f 101/65/101 100/196/100 12/197/12
f 101/65/101 109/64/109 100/196/100
f 109/64/109 40/195/40 100/196/100
f 108/62/108 71/198/71 41/199/41
f 108/62/108 96/61/96 71/198/71
f 96/61/96 9/40/9 71/198/71
f 106/57/106 108/62/108 41/199/41
f 106/57/106 107/59/107 108/62/108
f 107/59/107 36/60/36 108/62/108
f 102/58/102 101/200/101 12/201/12
f 102/58/102 106/57/106 101/200/101
f 106/57/106 41/199/41 101/200/101
f 105/55/105 72/202/72 42/203/42
f 105/55/105 97/54/97 72/202/72
f 97/54/97 10/43/10 72/202/72
f 103/50/103 105/55/105 42/203/42
f 103/50/103 104/52/104 105/55/105
f 104/52/104 37/53/37 105/55/105
f 69/51/69 102/204/102 12/205/12
f 69/51/69 103/50/103 102/204/102
f 103/50/103 42/203/42 102/204/102
f 99/48/99 104/52/104 39/49/39
f 99/48/99 67/47/67 104/52/104
f 67/47/67 37/53/37 104/52/104
f 72/45/72 107/59/107 42/56/42
f 72/45/72 66/44/66 107/59/107
f 66/44/66 36/60/36 107/59/107
f 71/42/71 110/66/110 41/63/41
f 71/42/71 65/41/65 110/66/110
f 65/41/65 35/67/35 110/66/110
f 70/39/70 113/73/113 40/70/40
f 70/39/70 64/38/64 113/73/113
f 64/38/64 34/74/34 113/73/113
f 68/36/68 116/80/116 38/77/38
f 68/36/68 63/35/63 116/80/116
f 63/35/63 33/81/33 116/80/116
f 84/33/84 119/87/119 24/84/24
f 84/33/84 61/28/61 119/87/119
f 61/28/61 31/88/31 119/87/119
f 92/32/92 122/94/122 32/91/32
f 92/32/92 59/25/59 122/94/122
f 59/25/59 29/95/29 122/94/122
f 90/31/90 125/101/125 30/98/30
f 90/31/90 57/22/57 125/101/125
f 57/22/57 27/102/27 125/101/125
f 88/30/88 128/108/128 28/105/28
f 88/30/88 55/19/55 128/108/128
f 55/19/55 25/109/25 128/108/128
f 86/29/86 131/115/131 26/112/26
f 86/29/86 53/16/53 131/115/131
f 53/16/53 23/116/23 131/115/131
f 61/28/61 134/120/134 31/88/31
f 61/28/61 52/27/52 134/120/134
f 52/27/52 22/121/22 134/120/134
f 59/25/59 137/125/137 29/95/29
f 59/25/59 51/24/51 137/125/137
f 51/24/51 21/126/21 137/125/137
f 57/22/57 140/130/140 27/102/27
f 57/22/57 49/21/49 140/130/140
f 49/21/49 19/131/19 140/130/140
f 55/19/55 143/135/143 25/109/25
f 55/19/55 45/18/45 143/135/143
f 45/18/45 15/136/15 143/135/143
f 53/16/53 146/140/146 23/116/23
f 53/16/53 46/6/46 146/140/146
f 46/6/46 16/141/16 146/140/146
f 77/15/77 149/147/149 17/144/17
f 77/15/77 50/14/50 149/147/149
f 50/14/50 20/148/20 149/147/149
f 50/12/50 152/154/152 20/151/20
f 50/12/50 48/11/48 152/154/152
f 48/11/48 18/155/18 152/154/152
f 48/9/48 155/161/155 18/158/18
f 48/9/48 43/8/43 155/161/155
f 43/8/43 13/162/13 155/161/155
f 46/6/46 158/166/158 16/141/16
f 46/6/46 44/5/44 158/166/158
f 44/5/44 14/167/14 158/166/158
f 43/3/43 161/173/161 13/170/13
f 43/3/43 74/2/74 161/173/161
f 74/2/74 14/174/14 161/173/161
