# Made in Blockbench 5.0.7
mtllib Desk.mtl

o Table
v -1.5 0 1.5
v 1.5 0 1.5
v 1.5 0 0.5
v -1.5 0 0.5
v -1.5 1.0625 1.5
v 1.5 1.0625 1.5
v 1.5 1.0625 0.5
v -1.5 1.0625 0.5
v -1.375 0.9375 0.5
v 1.375 0.9375 0.5
v 1.375 0 0.5
v -1.375 0 0.5
v -1.375 0.9375 1.4375
v 1.375 0.9375 1.4375
v 1.375 0 1.4375
v -1.375 0 1.4375
vt 0.0634765625 0.9208984375
vt 0.0869140625 0.9208984375
vt 0.0869140625 0.9287109375
vt 0.0634765625 0.9287109375
vt 0.04931640625 0.9267578125
vt 0.04150390625 0.9267578125
vt 0.04150390625 0.91845703125
vt 0.04931640625 0.91845703125
vt 0.0576171875 0.9267578125
vt 0.0498046875 0.9267578125
vt 0.0498046875 0.91845703125
vt 0.0576171875 0.91845703125
vt 0.04052734375 0.927734375
vt 0.06201171875 0.927734375
vt 0.06298828125 0.9287109375
vt 0.03955078125 0.9287109375
vt 0.04052734375 0.92041015625
vt 0.04052734375 0.927734375
vt 0.03955078125 0.9287109375
vt 0.03955078125 0.92041015625
vt 0.06201171875 0.927734375
vt 0.06201171875 0.92041015625
vt 0.06298828125 0.92041015625
vt 0.06298828125 0.9287109375
vt 0.1005859375 1
vt 0.0791015625 1
vt 0.0791015625 0.99267578125
vt 0.1005859375 0.99267578125
vt 0.08642578125 0.96923828125
vt 0.08642578125 0.9765625
vt 0.0791015625 0.9765625
vt 0.0791015625 0.96923828125
vt 0.0791015625 0.96875
vt 0.0791015625 0.96142578125
vt 0.08642578125 0.96142578125
vt 0.08642578125 0.96875
vn 0 1 0
vn 1 0 0
vn -1 0 0
vn 0 0 -1
vn 0 0 -1
vn 0 0 -1
vn 0 -1 0
vn -1 0 0
vn 1 0 0
usemtl m_93cc947c-e6e8-9869-4b61-970392b0ef0d
f 5/1/1 6/2/1 7/3/1 8/4/1
f 7/5/2 6/6/2 2/7/2 3/8/2
f 5/9/3 8/10/3 4/11/3 1/12/3
f 10/13/4 9/14/4 8/15/4 7/16/4
f 11/17/5 10/18/5 7/19/5 3/20/5
f 9/21/6 12/22/6 4/23/6 8/24/6
f 14/25/7 13/26/7 9/27/7 10/28/7
f 15/29/8 14/30/8 10/31/8 11/32/8
f 13/33/9 16/34/9 12/35/9 9/36/9