# Made in Blockbench 5.0.7
mtllib FishIncLogo.mtl

o cylinder
v 0 0 -0.0625
v 0.40192375 0.5625 0
v 0.40192375 0.5625 -0.0625
v 1.09807625 0.41177875 0
v 1.09807625 0.41177875 -0.0625
v 1.5 0.15072125 0
v 1.5 0.15072125 -0.0625
v 1.5 -0.15072125 0
v 1.5 -0.15072125 -0.0625
v 1.09807625 -0.41177875 0
v 1.09807625 -0.41177875 -0.0625
v 0.40192375 -0.5625 0
v 0.40192375 -0.5625 -0.0625
v -0.40192375 -0.5625 0
v -0.40192375 -0.5625 -0.0625
v -1.09807625 -0.41177875 0
v -1.09807625 -0.41177875 -0.0625
v -1.5 -0.15072125 0
v -1.5 -0.15072125 -0.0625
v -1.5 0.15072125 0
v -1.5 0.15072125 -0.0625
v -1.09807625 0.41177875 0
v -1.09807625 0.41177875 -0.0625
v -0.40192375 0.5625 0
v -0.40192375 0.5625 -0.0625
vt 0.49891875 0.6875
vt 0.6769890625 0.6875
vt 0.6769890625 0.703125
vt 0.49891875 0.703125
vt 0.47548125 0.71875
vt 0.64951875 0.7564296875000001
vt 0.375 0.859375
vt 0.6769890625 0.6875
vt 0.7968046875 0.6875
vt 0.7968046875 0.703125
vt 0.6769890625 0.703125
vt 0.64951875 0.7564296875000001
vt 0.75 0.8216953124999999
vt 0.375 0.859375
vt 0 0.984375
vt 0.078125 0.984375
vt 0.078125 1
vt 0 1
vt 0.75 0.8216953124999999
vt 0.75 0.8970546875000001
vt 0.375 0.859375
vt 0.0000703125 0.65625
vt 0.1198859375 0.65625
vt 0.1198859375 0.671875
vt 0.0000703125 0.671875
vt 0.75 0.8970546875000001
vt 0.64951875 0.9623203124999999
vt 0.375 0.859375
vt 0.1198859375 0.65625
vt 0.29795625 0.65625
vt 0.29795625 0.671875
vt 0.1198859375 0.671875
vt 0.64951875 0.9623203124999999
vt 0.47548125 1
vt 0.375 0.859375
vt 0.29795625 0.65625
vt 0.49891875 0.65625
vt 0.49891875 0.671875
vt 0.29795625 0.671875
vt 0.47548125 1
vt 0.27451875 1
vt 0.375 0.859375
vt 0.49891875 0.65625
vt 0.6769890625 0.65625
vt 0.6769890625 0.671875
vt 0.49891875 0.671875
vt 0.27451875 1
vt 0.10048125 0.9623203124999999
vt 0.375 0.859375
vt 0.6769890625 0.65625
vt 0.7968046875 0.65625
vt 0.7968046875 0.671875
vt 0.6769890625 0.671875
vt 0.10048125 0.9623203124999999
vt 0 0.8970546875000001
vt 0.375 0.859375
vt 0 0.71875
vt 0.078125 0.71875
vt 0.078125 0.734375
vt 0 0.734375
vt 0 0.8970546875000001
vt 0 0.8216953124999999
vt 0.375 0.859375
vt 0.0000703125 0.6875
vt 0.1198859375 0.6875
vt 0.1198859375 0.703125
vt 0.0000703125 0.703125
vt 0 0.8216953124999999
vt 0.10048125 0.7564296875000001
vt 0.375 0.859375
vt 0.1198859375 0.6875
vt 0.29795625 0.6875
vt 0.29795625 0.703125
vt 0.1198859375 0.703125
vt 0.10048125 0.7564296875000001
vt 0.27451875 0.71875
vt 0.375 0.859375
vt 0.29795625 0.6875
vt 0.49891875 0.6875
vt 0.49891875 0.703125
vt 0.29795625 0.703125
vt 0.27451875 0.71875
vt 0.47548125 0.71875
vt 0.375 0.859375
vn 0.21160343333664955 0.977355609284636 0
vn 0 0 -1
vn 0.5447053173504454 0.838627519969474 0
vn 0 0 -1
vn 1 0 0
vn 0 0 -1
vn 0.5447053173504454 -0.838627519969474 0
vn 0 0 -1
vn 0.21160343333664955 -0.977355609284636 0
vn 0 0 -1
vn 0 -1 0
vn 0 0 -1
vn -0.21160343333664955 -0.977355609284636 0
vn 0 0 -1
vn -0.5447053173504454 -0.838627519969474 0
vn 0 0 -1
vn -1 0 0
vn 0 0 -1
vn -0.5447053173504454 0.838627519969474 0
vn 0 0 -1
vn -0.21160343333664955 0.977355609284636 0
vn 0 0 -1
vn 0 1 0
vn 0 0 -1
usemtl m_45aceb4c-eb39-0450-fc50-d0daf97b7fd6
f 2/1/1 4/2/1 5/3/1 3/4/1
f 3/5/2 5/6/2 1/7/2
f 4/8/3 6/9/3 7/10/3 5/11/3
f 5/12/4 7/13/4 1/14/4
f 6/15/5 8/16/5 9/17/5 7/18/5
f 7/19/6 9/20/6 1/21/6
f 8/22/7 10/23/7 11/24/7 9/25/7
f 9/26/8 11/27/8 1/28/8
f 10/29/9 12/30/9 13/31/9 11/32/9
f 11/33/10 13/34/10 1/35/10
f 12/36/11 14/37/11 15/38/11 13/39/11
f 13/40/12 15/41/12 1/42/12
f 14/43/13 16/44/13 17/45/13 15/46/13
f 15/47/14 17/48/14 1/49/14
f 16/50/15 18/51/15 19/52/15 17/53/15
f 17/54/16 19/55/16 1/56/16
f 18/57/17 20/58/17 21/59/17 19/60/17
f 19/61/18 21/62/18 1/63/18
f 20/64/19 22/65/19 23/66/19 21/67/19
f 21/68/20 23/69/20 1/70/20
f 22/71/21 24/72/21 25/73/21 23/74/21
f 23/75/22 25/76/22 1/77/22
f 24/78/23 2/79/23 3/80/23 25/81/23
f 25/82/24 3/83/24 1/84/24