# Made in Blockbench 5.0.7
mtllib Room.mtl

o mesh
v 2.5 3 1.5
v 2.5 3 -4.5
v 2.5 0 1.5
v 2.5 0 -4.5
v -2.5 3 1.5
v -2.5 3 -4.5
v -2.5 0 1.5
v -2.5 0 -4.5
vt 0.09375 0.953125
vt 0.09375 1
vt 0 1
vt 0 0.953125
vt 0.09375 1
vt 0 1
vt 0 0.953125
vt 0.09375 0.953125
vt 0.078125 0.90625
vt 0.078125 1
vt 0 1
vt 0 0.90625
vt 0 0.90625
vt 0.078125 0.90625
vt 0.078125 1
vt 0 1
vt 0.078125 1
vt 0 1
vt 0 0.953125
vt 0.078125 0.953125
vn -1 0 0
vn 1 0 0
vn 0 -1 0
vn 0 1 0
vn 0 0 -1
usemtl m_93cc947c-e6e8-9869-4b61-970392b0ef0d
f 3/1/1 1/2/1 2/3/1 4/4/1
f 6/5/2 5/6/2 7/7/2 8/8/2
f 2/9/3 1/10/3 5/11/3 6/12/3
f 7/13/4 3/14/4 4/15/4 8/16/4
f 5/17/5 1/18/5 3/19/5 7/20/5