# Made in Blockbench 5.0.4
mtllib skybox.mtl

o sphere
v 0 -625 0
v 0 625 0
v 83.7341225 541.2658775 312.5
v 145.031755 312.5 541.2658774999999
v 167.468245 0 625
v 145.031755 -312.5 541.2658774999999
v 83.7341225 -541.2658775 312.5
v 228.7658775 541.2658775 228.76587749999996
v 396.2341225 312.5 396.23412249999996
v 457.531755 0 457.5317549999999
v 396.2341225 -312.5 396.23412249999996
v 228.7658775 -541.2658775 228.76587749999996
v 312.5 541.2658775 83.7341225
v 541.2658775 312.5 145.03175499999998
v 625 0 167.468245
v 541.2658775 -312.5 145.03175499999998
v 312.5 -541.2658775 83.7341225
v 312.5 541.2658775 -83.7341225
v 541.2658775 312.5 -145.03175499999998
v 625 0 -167.468245
v 541.2658775 -312.5 -145.03175499999998
v 312.5 -541.2658775 -83.7341225
v 228.7658775 541.2658775 -228.76587749999996
v 396.2341225 312.5 -396.23412249999996
v 457.531755 0 -457.5317549999999
v 396.2341225 -312.5 -396.23412249999996
v 228.7658775 -541.2658775 -228.76587749999996
v 83.7341225 541.2658775 -312.5
v 145.031755 312.5 -541.2658774999999
v 167.468245 0 -625
v 145.031755 -312.5 -541.2658774999999
v 83.7341225 -541.2658775 -312.5
v -83.7341225 541.2658775 -312.5
v -145.031755 312.5 -541.2658774999999
v -167.468245 0 -625
v -145.031755 -312.5 -541.2658774999999
v -83.7341225 -541.2658775 -312.5
v -228.7658775 541.2658775 -228.76587749999996
v -396.2341225 312.5 -396.23412249999996
v -457.531755 0 -457.5317549999999
v -396.2341225 -312.5 -396.23412249999996
v -228.7658775 -541.2658775 -228.76587749999996
v -312.5 541.2658775 -83.7341225
v -541.2658775 312.5 -145.03175499999998
v -625 0 -167.468245
v -541.2658775 -312.5 -145.03175499999998
v -312.5 -541.2658775 -83.7341225
v -312.5 541.2658775 83.7341225
v -541.2658775 312.5 145.03175499999998
v -625 0 167.468245
v -541.2658775 -312.5 145.03175499999998
v -312.5 -541.2658775 83.7341225
v -228.7658775 541.2658775 228.76587749999996
v -396.2341225 312.5 396.23412249999996
v -457.531755 0 457.5317549999999
v -396.2341225 -312.5 396.23412249999996
v -228.7658775 -541.2658775 228.76587749999996
v -83.7341225 541.2658775 312.5
v -145.031755 312.5 541.2658774999999
v -167.468245 0 625
v -145.031755 -312.5 541.2658774999999
v -83.7341225 -541.2658775 312.5
vt 0.1004471875 0.8551003125
vt 0.1370584375 0.8347875
vt 0.1579928125 0.91566875
vt 0.0478065625 0.791810625
vt 0.1112190625 0.7566278125
vt 0.1370584375 0.8347875
vt 0.1004471875 0.8551003125
vt 0.00020375 0.639415625
vt 0.083134375 0.6278637499999999
vt 0.088740625 0.708745
vt 0.0169153125 0.71875
vt 0.0169153125 0.5369771875
vt 0.088740625 0.5469824999999999
vt 0.083134375 0.6278637499999999
vt 0.00020375 0.6163115625
vt 0.0650990625 0.4507846875
vt 0.104065625 0.46610125
vt 0.088740625 0.5469824999999999
vt 0.0212484375 0.5204537499999999
vt 0.13726875 0.37075375
vt 0.1006575 0.35044093750000005
vt 0.158203125 0.2898725
vt 0.078288125 0.8906246875
vt 0.1004471875 0.8551003125
vt 0.1579928125 0.91566875
vt 0.0015525 0.8608209375
vt 0.0399328125 0.79929125
vt 0.1004471875 0.8551003125
vt 0.078288125 0.8906246875
vt 0.698115625 0.9091137499999999
vt 0.78104625 0.920665625
vt 0.7643346875 1
vt 0.692509375 0.989995
vt 0.692509375 0.8282325
vt 0.7643346875 0.8182271875
vt 0.78104625 0.8975615625
vt 0.698115625 0.9091137499999999
vt 0.0784984375 0.314916875
vt 0.1006575 0.35044093750000005
vt 0.040143125 0.40625
vt 0.0017628125 0.3447203125
vt 0.1006575 0.35044093750000005
vt 0.0784984375 0.314916875
vt 0.158203125 0.2898725
vt 0.0761465625 0.9324384375
vt 0.078288125 0.8906246875
vt 0.1579928125 0.91566875
vt 0.37585 0.75
vt 0.44836875 0.75
vt 0.43304375 0.84375
vt 0.391175 0.84375
vt 0.614384375 0.9091137499999999
vt 0.698115625 0.9091137499999999
vt 0.692509375 0.989995
vt 0.619990625 0.989995
vt 0.619990625 0.8282325
vt 0.692509375 0.8282325
vt 0.698115625 0.9091137499999999
vt 0.614384375 0.9091137499999999
vt 0.635315625 0.74735125
vt 0.677184375 0.74735125
vt 0.692509375 0.8282325
vt 0.619990625 0.8282325
vt 0.0784984375 0.314916875
vt 0.076356875 0.2731028125
vt 0.158203125 0.2898725
vt 0.09456 0.9700409375
vt 0.0761465625 0.9324384375
vt 0.1579928125 0.91566875
vt 0.77055625 0.58902875
vt 0.823665625 0.6384084375
vt 0.7573684375 0.687206875
vt 0.726705625 0.6586974999999999
vt 0.53145375 0.920665625
vt 0.614384375 0.9091137499999999
vt 0.619990625 0.989995
vt 0.5481653125 1
vt 0.5481653125 0.8182271875
vt 0.619990625 0.8282325
vt 0.614384375 0.9091137499999999
vt 0.53145375 0.8975615625
vt 0.5963490625 0.7320346875
vt 0.635315625 0.74735125
vt 0.619990625 0.8282325
vt 0.5524984375 0.8017037499999999
vt 0.076356875 0.2731028125
vt 0.094770625 0.23550062500000002
vt 0.158203125 0.2898725
vt 0.128904375 0.9939878125
vt 0.09456 0.9700409375
vt 0.1579928125 0.91566875
vt 0.7030640625 0.5625
vt 0.77055625 0.58902875
vt 0.726705625 0.6586974999999999
vt 0.6877390625 0.64338125
vt 0.448115625 0.6278637499999999
vt 0.53104625 0.639415625
vt 0.5143346875 0.71875
vt 0.442509375 0.708745
vt 0.442509375 0.5469824999999999
vt 0.5143346875 0.5369771875
vt 0.53104625 0.6163115625
vt 0.448115625 0.6278637499999999
vt 0.427184375 0.46610125
vt 0.4661509375 0.4507846875
vt 0.5100015625 0.5204537499999999
vt 0.442509375 0.5469824999999999
vt 0.094770625 0.23550062500000002
vt 0.1291146875 0.2115534375
vt 0.158203125 0.2898725
vt 0.1705540625 0.998265625
vt 0.128904375 0.9939878125
vt 0.1579928125 0.91566875
vt 0.6305453125 0.5625
vt 0.7030640625 0.5625
vt 0.6877390625 0.64338125
vt 0.6458703125 0.64338125
vt 0.364384375 0.6278637499999999
vt 0.448115625 0.6278637499999999
vt 0.442509375 0.708745
vt 0.369990625 0.708745
vt 0.369990625 0.5469824999999999
vt 0.442509375 0.5469824999999999
vt 0.448115625 0.6278637499999999
vt 0.364384375 0.6278637499999999
vt 0.385315625 0.46610125
vt 0.427184375 0.46610125
vt 0.442509375 0.5469824999999999
vt 0.369990625 0.5469824999999999
vt 0.145641875 0.20727562499999996
vt 0.1872915625 0.2115534375
vt 0.158203125 0.2898725
vt 0.2214253125 0.9700409375
vt 0.18708125 0.9939878125
vt 0.1579928125 0.91566875
vt 0.563053125 0.58902875
vt 0.6305453125 0.5625
vt 0.6458703125 0.64338125
vt 0.6069034375 0.6586974999999999
vt 0.28145375 0.639415625
vt 0.364384375 0.6278637499999999
vt 0.369990625 0.708745
vt 0.2981653125 0.71875
vt 0.2981653125 0.5369771875
vt 0.369990625 0.5469824999999999
vt 0.364384375 0.6278637499999999
vt 0.28145375 0.6163115625
vt 0.3463490625 0.4507846875
vt 0.385315625 0.46610125
vt 0.369990625 0.5469824999999999
vt 0.3024984375 0.5204537499999999
vt 0.1872915625 0.2115534375
vt 0.221635625 0.23550062500000002
vt 0.158203125 0.2898725
vt 0.2398390625 0.9324384375
vt 0.2214253125 0.9700409375
vt 0.1579928125 0.91566875
vt 0.598759375 0.37098624999999996
vt 0.6662515625 0.39751499999999995
vt 0.6224009375 0.4671840625
vt 0.583434375 0.4518675
vt 0.604365625 0.29010499999999995
vt 0.68729625 0.30165718750000003
vt 0.6705846875 0.3809915625
vt 0.598759375 0.37098624999999996
vt 0.598759375 0.20922375000000004
vt 0.6705846875 0.19921875
vt 0.68729625 0.27855312499999996
vt 0.604365625 0.29010499999999995
vt 0.370000625 0.91911875
vt 0.4089675 0.9038025
vt 0.452818125 0.97347125
vt 0.385325625 1
vt 0.221635625 0.23550062500000002
vt 0.240049375 0.2731028125
vt 0.158203125 0.2898725
vt 0.2376971875 0.8906246875
vt 0.2398390625 0.9324384375
vt 0.1579928125 0.91566875
vt 0.526240625 0.37098624999999996
vt 0.598759375 0.37098624999999996
vt 0.583434375 0.4518675
vt 0.541565625 0.4518675
vt 0.520634375 0.29010499999999995
vt 0.604365625 0.29010499999999995
vt 0.598759375 0.37098624999999996
vt 0.526240625 0.37098624999999996
vt 0.526240625 0.20922375000000004
vt 0.598759375 0.20922375000000004
vt 0.604365625 0.29010499999999995
vt 0.520634375 0.29010499999999995
vt 0.328131875 0.91911875
vt 0.370000625 0.91911875
vt 0.385325625 1
vt 0.312806875 1
vt 0.240049375 0.2731028125
vt 0.2379078125 0.314916875
vt 0.158203125 0.2898725
vt 0.2155384375 0.8551003125
vt 0.2376971875 0.8906246875
vt 0.1579928125 0.91566875
vt 0.261744375 0.780435
vt 0.31485375 0.8298146875
vt 0.2485565625 0.878613125
vt 0.21789375 0.8501037499999999
vt 0.43770375 0.30165718750000003
vt 0.520634375 0.29010499999999995
vt 0.526240625 0.37098624999999996
vt 0.4544153125 0.3809915625
vt 0.4544153125 0.19921875
vt 0.526240625 0.20922375000000004
vt 0.520634375 0.29010499999999995
vt 0.43770375 0.27855312499999996
vt 0.21574875 0.35044093750000005
vt 0.2379078125 0.314916875
vt 0.3146434375 0.3447203125
vt 0.276263125 0.40625
vt 0.2379078125 0.314916875
vt 0.21574875 0.35044093750000005
vt 0.158203125 0.2898725
vt 0.1789271875 0.8347875
vt 0.2155384375 0.8551003125
vt 0.1579928125 0.91566875
vt 0.1942521875 0.75390625
vt 0.261744375 0.780435
vt 0.21789375 0.8501037499999999
vt 0.1789271875 0.8347875
vt 0.166865625 0.6278637499999999
vt 0.24979625 0.639415625
vt 0.2330846875 0.71875
vt 0.161259375 0.708745
vt 0.161259375 0.5469824999999999
vt 0.2330846875 0.5369771875
vt 0.24979625 0.6163115625
vt 0.166865625 0.6278637499999999
vt 0.145934375 0.46610125
vt 0.1849009375 0.4507846875
vt 0.2287515625 0.5204537499999999
vt 0.161259375 0.5469824999999999
vt 0.21574875 0.35044093750000005
vt 0.1791375 0.37075375
vt 0.158203125 0.2898725
vt 0.1370584375 0.8347875
vt 0.1789271875 0.8347875
vt 0.1579928125 0.91566875
vt 0.1217334375 0.75390625
vt 0.1942521875 0.75390625
vt 0.1789271875 0.8347875
vt 0.1370584375 0.8347875
vt 0.083134375 0.6278637499999999
vt 0.166865625 0.6278637499999999
vt 0.161259375 0.708745
vt 0.088740625 0.708745
vt 0.088740625 0.5469824999999999
vt 0.161259375 0.5469824999999999
vt 0.166865625 0.6278637499999999
vt 0.083134375 0.6278637499999999
vt 0.104065625 0.46610125
vt 0.145934375 0.46610125
vt 0.161259375 0.5469824999999999
vt 0.088740625 0.5469824999999999
vt 0.1791375 0.37075375
vt 0.13726875 0.37075375
vt 0.158203125 0.2898725
vn -0.12940952199796915 -0.9659258264052556 -0.22414386786075846
vn -0.3535533914414546 -0.7071067813287618 -0.6123724350418823
vn -0.4829629120249382 -0.25881904408609885 -0.836516304698689
vn -0.48296291456250656 0.2588190438918303 -0.8365163032937301
vn -0.3535533894606645 0.7071067816131904 -0.6123724358570621
vn -0.12940952199796915 0.9659258264052556 -0.22414386786075846
vn -0.22414386786075846 -0.9659258264052556 -0.12940952199796912
vn -0.6123724357148477 -0.7071067805516883 -0.3535533918299915
vn -0.8365163041158838 -0.25881904659764016 -0.48296291168845534
vn -0.8365163026207646 0.2588190467919086 -0.48296291417397
vn -0.6123724370226726 0.7071067802672595 -0.35355339013362985
vn -0.22414386786075852 0.9659258264052557 -0.12940952199796915
vn -0.2588190447139839 -0.9659258263931765 0
vn -0.7071067811865476 -0.7071067811865476 0
vn -0.9659258263931765 -0.2588190447139839 0
vn -0.9659258263931766 0.258819044713984 0
vn -0.7071067811865476 0.7071067811865476 0
vn -0.2588190447139839 0.9659258263931765 0
vn -0.22414386786075852 -0.9659258264052557 0.12940952199796915
vn -0.612372435041882 -0.7071067813287619 0.35355339144145465
vn -0.8365163046986892 -0.25881904408609846 0.48296291202493813
vn -0.83651630329373 0.2588190438918301 0.4829629145625068
vn -0.612372435857062 0.7071067816131907 0.3535533894606643
vn -0.22414386786075846 0.9659258264052556 0.12940952199796912
vn -0.12940952199796915 -0.9659258264052556 0.22414386786075846
vn -0.3535533918299914 -0.7071067805516882 0.6123724357148478
vn -0.4829629116884556 -0.2588190465976401 0.836516304115884
vn -0.48296291417396975 0.25881904679190854 0.8365163026207647
vn -0.35355339013362985 0.7071067802672595 0.6123724370226724
vn -0.12940952199796915 0.9659258264052556 0.22414386786075846
vn 0 -0.9659258263931765 0.2588190447139839
vn 0 -0.7071067811865474 0.7071067811865477
vn 0 -0.2588190447139843 0.9659258263931765
vn 0 0.25881904471398426 0.9659258263931764
vn 0 0.7071067811865474 0.7071067811865477
vn 0 0.9659258263931765 0.2588190447139839
vn 0.12940952199796915 -0.9659258264052556 0.22414386786075846
vn 0.3535533914414546 -0.7071067813287618 0.6123724350418823
vn 0.4829629120249382 -0.25881904408609885 0.836516304698689
vn 0.48296291456250656 0.2588190438918303 0.8365163032937301
vn 0.3535533894606645 0.7071067816131904 0.6123724358570621
vn 0.12940952199796915 0.9659258264052556 0.22414386786075846
vn 0.22414386786075846 -0.9659258264052556 0.12940952199796912
vn 0.6123724357148477 -0.7071067805516883 0.3535533918299915
vn 0.8365163041158838 -0.25881904659764016 0.48296291168845534
vn 0.8365163026207646 0.2588190467919086 0.48296291417397
vn 0.6123724370226726 0.7071067802672595 0.35355339013362985
vn 0.22414386786075852 0.9659258264052557 0.12940952199796915
vn 0.2588190447139839 -0.9659258263931765 0
vn 0.7071067811865476 -0.7071067811865476 0
vn 0.9659258263931765 -0.2588190447139839 0
vn 0.9659258263931766 0.258819044713984 0
vn 0.7071067811865476 0.7071067811865476 0
vn 0.2588190447139839 0.9659258263931765 0
vn 0.22414386786075852 -0.9659258264052557 -0.12940952199796915
vn 0.612372435041882 -0.7071067813287619 -0.35355339144145465
vn 0.8365163046986892 -0.25881904408609846 -0.48296291202493813
vn 0.83651630329373 0.2588190438918301 -0.4829629145625068
vn 0.612372435857062 0.7071067816131907 -0.3535533894606643
vn 0.22414386786075846 0.9659258264052556 -0.12940952199796912
vn 0.12940952199796915 -0.9659258264052556 -0.22414386786075846
vn 0.3535533918299914 -0.7071067805516882 -0.6123724357148478
vn 0.4829629116884556 -0.2588190465976401 -0.836516304115884
vn 0.48296291417396975 0.25881904679190854 -0.8365163026207647
vn 0.35355339013362985 0.7071067802672595 -0.6123724370226724
vn 0.12940952199796915 0.9659258264052556 -0.22414386786075846
vn 0 -0.9659258263931765 -0.2588190447139839
vn 0 -0.7071067811865474 -0.7071067811865477
vn 0 -0.2588190447139843 -0.9659258263931765
vn 0 0.25881904471398426 -0.9659258263931764
vn 0 0.7071067811865474 -0.7071067811865477
vn 0 0.9659258263931765 -0.2588190447139839
usemtl m_4c092a3b-779e-3453-9d66-65ca598457e9
f 8/1/1 3/2/1 2/3/1
f 9/4/2 4/5/2 3/6/2 8/7/2
f 10/8/3 5/9/3 4/10/3 9/11/3
f 11/12/4 6/13/4 5/14/4 10/15/4
f 12/16/5 7/17/5 6/18/5 11/19/5
f 7/20/6 12/21/6 1/22/6
f 13/23/7 8/24/7 2/25/7
f 14/26/8 9/27/8 8/28/8 13/29/8
f 15/30/9 10/31/9 9/32/9 14/33/9
f 16/34/10 11/35/10 10/36/10 15/37/10
f 17/38/11 12/39/11 11/40/11 16/41/11
f 12/42/12 17/43/12 1/44/12
f 18/45/13 13/46/13 2/47/13
f 19/48/14 14/49/14 13/50/14 18/51/14
f 20/52/15 15/53/15 14/54/15 19/55/15
f 21/56/16 16/57/16 15/58/16 20/59/16
f 22/60/17 17/61/17 16/62/17 21/63/17
f 17/64/18 22/65/18 1/66/18
f 23/67/19 18/68/19 2/69/19
f 24/70/20 19/71/20 18/72/20 23/73/20
f 25/74/21 20/75/21 19/76/21 24/77/21
f 26/78/22 21/79/22 20/80/22 25/81/22
f 27/82/23 22/83/23 21/84/23 26/85/23
f 22/86/24 27/87/24 1/88/24
f 28/89/25 23/90/25 2/91/25
f 29/92/26 24/93/26 23/94/26 28/95/26
f 30/96/27 25/97/27 24/98/27 29/99/27
f 31/100/28 26/101/28 25/102/28 30/103/28
f 32/104/29 27/105/29 26/106/29 31/107/29
f 27/108/30 32/109/30 1/110/30
f 33/111/31 28/112/31 2/113/31
f 34/114/32 29/115/32 28/116/32 33/117/32
f 35/118/33 30/119/33 29/120/33 34/121/33
f 36/122/34 31/123/34 30/124/34 35/125/34
f 37/126/35 32/127/35 31/128/35 36/129/35
f 32/130/36 37/131/36 1/132/36
f 38/133/37 33/134/37 2/135/37
f 39/136/38 34/137/38 33/138/38 38/139/38
f 40/140/39 35/141/39 34/142/39 39/143/39
f 41/144/40 36/145/40 35/146/40 40/147/40
f 42/148/41 37/149/41 36/150/41 41/151/41
f 37/152/42 42/153/42 1/154/42
f 43/155/43 38/156/43 2/157/43
f 44/158/44 39/159/44 38/160/44 43/161/44
f 45/162/45 40/163/45 39/164/45 44/165/45
f 46/166/46 41/167/46 40/168/46 45/169/46
f 47/170/47 42/171/47 41/172/47 46/173/47
f 42/174/48 47/175/48 1/176/48
f 48/177/49 43/178/49 2/179/49
f 49/180/50 44/181/50 43/182/50 48/183/50
f 50/184/51 45/185/51 44/186/51 49/187/51
f 51/188/52 46/189/52 45/190/52 50/191/52
f 52/192/53 47/193/53 46/194/53 51/195/53
f 47/196/54 52/197/54 1/198/54
f 53/199/55 48/200/55 2/201/55
f 54/202/56 49/203/56 48/204/56 53/205/56
f 55/206/57 50/207/57 49/208/57 54/209/57
f 56/210/58 51/211/58 50/212/58 55/213/58
f 57/214/59 52/215/59 51/216/59 56/217/59
f 52/218/60 57/219/60 1/220/60
f 58/221/61 53/222/61 2/223/61
f 59/224/62 54/225/62 53/226/62 58/227/62
f 60/228/63 55/229/63 54/230/63 59/231/63
f 61/232/64 56/233/64 55/234/64 60/235/64
f 62/236/65 57/237/65 56/238/65 61/239/65
f 57/240/66 62/241/66 1/242/66
f 3/243/67 58/244/67 2/245/67
f 4/246/68 59/247/68 58/248/68 3/249/68
f 5/250/69 60/251/69 59/252/69 4/253/69
f 6/254/70 61/255/70 60/256/70 5/257/70
f 7/258/71 62/259/71 61/260/71 6/261/71
f 62/262/72 7/263/72 1/264/72